M48
; DRILL file {KiCad 8.0.4} date 2025-05-13T21:22:48-0300
; FORMAT={-:-/ absolute / inch / decimal}
; #@! TF.CreationDate,2025-05-13T21:22:48-03:00
; #@! TF.GenerationSoftware,Kicad,Pcbnew,8.0.4
; #@! TF.FileFunction,Plated,1,2,PTH
FMAT,2
INCH
; #@! TA.AperFunction,Plated,PTH,ComponentDrill
T1C0.0394
%
G90
G05
T1
X5.2283Y-2.8543
X5.2283Y-2.9543
X5.2283Y-3.0543
X5.2283Y-3.1543
X5.2283Y-3.2543
X5.2283Y-3.3543
X5.2283Y-3.4543
X5.2283Y-3.5543
X5.2283Y-3.6543
X5.2283Y-3.7543
X5.2283Y-3.8543
X5.2283Y-3.9543
X5.3283Y-2.8543
X5.3283Y-2.9543
X5.3283Y-3.0543
X5.3283Y-3.1543
X5.3283Y-3.2543
X5.3283Y-3.3543
X5.3283Y-3.4543
X5.3283Y-3.5543
X5.3283Y-3.6543
X5.3283Y-3.7543
X5.3283Y-3.8543
X5.3283Y-3.9543
M30
